<?xml version="1.0" encoding="utf-8"?>
<!-- Generator: Adobe Illustrator 26.5.0, SVG Export Plug-In . SVG Version: 6.00 Build 0)  -->
<svg version="1.1" id="Layer_1" xmlns="http://www.w3.org/2000/svg" xmlns:xlink="http://www.w3.org/1999/xlink" x="0px" y="0px"
	 viewBox="0 0 200 200" style="enable-background:new 0 0 200 200;" xml:space="preserve">
<style type="text/css">
	.st0{fill:#C981FC;}
</style>
<g id="XMLID_00000078031851008873613870000012722234585188398783_">
	<g>
		<path d="M171.5,76.2c0,28.8-10,36.9-64.2,115.4c-3.5,5.1-11.1,5.1-14.7,0C38.5,113,28.5,105,28.5,76.2c0-39.5,32-71.5,71.5-71.5
			S171.5,36.7,171.5,76.2z M129.8,76.2c0-16.5-13.3-29.8-29.8-29.8S70.2,59.7,70.2,76.2S83.5,106,100,106S129.8,92.6,129.8,76.2z"/>
		<circle cx="100" cy="76.2" r="29.8"/>
	</g>
</g>
<path class="st0" d="M133.5,65.7l-6-6V45.2c0-2.3-1.8-4.1-4.1-4.1h-4.1c-2.3,0-4.1,1.8-4.1,4.1v2.3l-8.2-8.2
	c-1.1-1.1-2.1-2.3-4.1-2.3s-3,1.2-4.1,2.3L72.3,65.7C71,67,70,68,70,69.8c0,2.3,1.8,4.1,4.1,4.1h4.1v24.6c0,2.3,1.8,4.1,4.1,4.1
	h12.3V82.1c0-2.3,1.8-4.1,4.1-4.1h8.2c2.3,0,4.1,1.8,4.1,4.1v20.5h12.3c2.3,0,4.1-1.8,4.1-4.1V73.9h4.1c2.3,0,4.1-1.8,4.1-4.1
	C135.8,68,134.8,67,133.5,65.7z"/>
</svg>
