<?xml version="1.0" encoding="utf-8"?>
<!-- Generator: Adobe Illustrator 26.5.0, SVG Export Plug-In . SVG Version: 6.00 Build 0)  -->
<svg version="1.1" id="Layer_1" xmlns="http://www.w3.org/2000/svg" xmlns:xlink="http://www.w3.org/1999/xlink" x="0px" y="0px"
	 viewBox="0 0 200 200" style="enable-background:new 0 0 200 200;" xml:space="preserve">
<style type="text/css">
	.st0{fill:none;}
	.st1{fill:#C981FC;}
	.st2{opacity:0.5;}
	.st3{fill:#3A3A3A;}
</style>
<line class="st0" x1="-274.7" y1="-47.4" x2="-203.9" y2="-118.1"/>
<g>
	<g id="XMLID_00000078031851008873613870000012722234585188398783_">
		<g>
			<path class="st1" d="M171.5-186.6c0,28.8-10,36.9-64.2,115.4c-3.5,5.1-11.1,5.1-14.7,0c-54.1-78.6-64.1-86.6-64.1-115.4
				c0-39.5,32-71.5,71.5-71.5S171.5-226.1,171.5-186.6z M129.8-186.6c0-16.5-13.3-29.8-29.8-29.8s-29.8,13.3-29.8,29.8
				s13.3,29.8,29.8,29.8S129.8-170.2,129.8-186.6z"/>
			<circle class="st1" cx="100" cy="-186.6" r="29.8"/>
		</g>
	</g>
	<path d="M129.7-193.2l-6-6v-14.6c0-2.3-1.8-4.1-4.1-4.1h-4.1c-2.3,0-4.1,1.8-4.1,4.1v2.3l-8.2-8.2c-1.1-1.1-2.1-2.3-4.1-2.3
		c-2,0-3,1.2-4.1,2.3l-26.5,26.5c-1.3,1.3-2.3,2.3-2.3,4.1c0,2.3,1.8,4.1,4.1,4.1h4.1v24.6c0,2.3,1.8,4.1,4.1,4.1h12.3v-20.5
		c0-2.3,1.8-4.1,4.1-4.1h8.2c2.3,0,4.1,1.8,4.1,4.1v20.5h12.3c2.3,0,4.1-1.8,4.1-4.1V-185h4.1c2.3,0,4.1-1.8,4.1-4.1
		C132-190.9,131-191.9,129.7-193.2z"/>
</g>
<g class="st2">
	<g id="XMLID_00000155146599871126125010000001635184603291402139_">
		<g>
			<path class="st3" d="M168.7,145.4c-17.2,23.1-30.1,23.6-120.5,54.1c-5.9,2-11.9-2.6-11.8-8.8C40.1,95.4,36.8,83,54.1,59.9
				c23.6-31.7,68.4-38.2,100.1-14.5S192.3,113.8,168.7,145.4z M135.2,120.5c9.9-13.2,7.2-31.8-6.1-41.7s-31.8-7.2-41.7,6.1
				s-7.2,31.8,6.1,41.7S125.4,133.6,135.2,120.5z"/>
			<circle class="st3" cx="111.4" cy="102.7" r="29.8"/>
		</g>
	</g>
</g>
</svg>
