<?xml version="1.0" encoding="utf-8"?>
<!-- Generator: Adobe Illustrator 26.5.0, SVG Export Plug-In . SVG Version: 6.00 Build 0)  -->
<svg version="1.1" id="Layer_1" xmlns="http://www.w3.org/2000/svg" xmlns:xlink="http://www.w3.org/1999/xlink" x="0px" y="0px"
	 viewBox="0 0 200 200" style="enable-background:new 0 0 200 200;" xml:space="preserve">
<style type="text/css">
	.st0{fill:#C981FC;}
	.st1{fill:#FFFFFF;}
</style>
<g id="XMLID_00000078031851008873613870000012722234585188398783_">
	<g>
		<path class="st0" d="M171.5,76.2c0,28.8-10,36.9-64.2,115.4c-3.5,5.1-11.1,5.1-14.7,0C38.5,113,28.5,105,28.5,76.2
			c0-39.5,32-71.5,71.5-71.5S171.5,36.7,171.5,76.2z M129.8,76.2c0-16.5-13.3-29.8-29.8-29.8S70.2,59.7,70.2,76.2S83.5,106,100,106
			S129.8,92.6,129.8,76.2z"/>
		<circle class="st0" cx="100" cy="76.2" r="29.8"/>
	</g>
</g>
<g>
	<path d="M118.1,112.4c-0.3,0-0.6,0-0.8,0c-2.5-0.9-3.2-1.9-3.2-4.6c0-9,0-18,0-27c0-0.3,0-0.6,0-0.9c-0.6,0-1,0-1.6,0
		c0,0.3,0,0.6,0,0.9c0,6.6,0,13.2,0,19.8c0,2.7,0,5.4,0,8c0,1.8-1.1,3.1-2.8,3.6c-0.1,0-0.2,0.1-0.3,0.1c-0.3,0-0.6,0-0.8,0
		c-2.6-0.9-3.2-1.9-3.2-4.7c0-16.6,0-33.1,0-49.7c0-0.3,0-0.6,0-0.9c-1,0.2-1.2,0.5-1.2,1.5c0,6.8,0,13.6,0,20.3
		c0,0.4,0,0.8-0.1,1.1c-0.1,1-0.7,1.8-1.6,2.2c-1.8,0.9-3.6,0.1-4.3-1.8c-1.8-5-3.6-9.9-5.5-14.9c-0.1-0.2-0.1-0.3-0.2-0.5
		c-0.1,0.2-0.1,0.3,0,0.4c1.3,6.7,2.5,13.3,3.8,20c0.3,1.4-0.4,2.2-1.9,2.2c-0.6,0-1.2,0-1.9,0c0,0.4,0,0.6,0,0.9
		c0,6.6,0,13.2,0,19.8c0,2-0.9,3.2-2.8,3.7c-0.1,0-0.1,0.1-0.2,0.1c-0.3,0-0.7,0-1,0c-2.4-0.8-3.1-1.8-3.1-4.4c0-6.4,0-12.9,0-19.3
		c0-0.3,0-0.5,0-0.8c-0.5,0-1,0-1.5,0c0,0.3,0,0.6,0,0.9c0,6.6,0,13.2,0,19.8c0,1.2-0.3,2.3-1.3,3c-0.5,0.4-1.1,0.6-1.7,0.9
		c-0.4,0-0.8,0-1.1,0c-2.2-0.7-3-2.3-3-4.5c0.1-6.4,0-12.8,0-19.2c0-0.3,0-0.5,0-0.9c-0.8,0-1.4,0-2.1,0c-1.2,0-1.9-0.9-1.7-2
		c1-5.5,2.1-10.9,3.1-16.4c0.3-1.4,0.5-2.8,0.8-4.2c-0.2,0.2-0.3,0.4-0.4,0.7c-1.7,4.6-3.3,9.3-5,13.9c-0.4,1-0.5,1.9-0.5,3
		c0,9.3,0,18.5,0,27.8c0,0.9-0.2,1.5-1,1.9c-0.3,0-0.6,0-0.8,0c-0.8-0.4-1-1.1-1-2c0-9.2,0-18.3,0-27.5c0-0.3,0-0.6,0-0.8
		c-0.1,0-0.1,0.1-0.2,0.1c-0.7-0.5-1.3-0.9-2.1-1.4c-0.6,0.2-1,0.7-1,1.5c0,1.2,0,2.4,0,3.6c0,1-0.6,1.7-1.5,1.6
		c-0.8,0-1.4-0.6-1.4-1.6c0-1.2,0-2.5,0-3.7c0-2.1,1.4-3.8,3.4-4.3c0.4-0.1,0.6-0.3,0.8-0.7c1.7-4.9,3.5-9.8,5.3-14.7
		c0.7-1.9,1.3-3.8,2.2-5.6c0.7-1.6,1.9-2.8,3.6-3.5c0.4-0.2,0.7-0.1,0.9,0.3c3.3,4.2,9.2,4.2,12.5,0c0.3-0.4,0.5-0.4,0.9-0.2
		c1.1,0.4,2.1,1.1,2.8,2.1c0.7,1.2,1.3,2.4,1.9,3.7c0.6,1.3,1,2.7,1.5,4.1c0.1-1.6,0.1-3.2,0.1-4.9c0-0.7,0.1-1.3,0.2-2
		c0.9-3.6,4.3-5.8,8-5.4c0.2,0,0.4,0.2,0.5,0.3c3.3,4.3,9.6,4.2,12.9,0c0.1-0.2,0.4-0.3,0.6-0.3c0.7,0,1.4,0,2,0.1
		c3.7,0.6,6.1,3.4,6.1,7.2c0,6.6,0,13.1,0,19.7c0,0.3,0,0.5,0,0.8c2.4,0.9,3.4,2.6,3.3,5c0,1,0,2,0,3c0,1-0.6,1.7-1.4,1.7
		c-0.8,0-1.4-0.7-1.4-1.7c0-1.2,0-2.4,0-3.5c0-0.6-0.2-1.1-0.6-1.4c-0.9,0.5-1.7,1-2.6,1.6c0,0.1,0,0.4,0,0.7c0,8.7,0,17.5,0,26.2
		c0,0.9-0.2,1.6-1,2c-0.3,0-0.6,0-0.8,0c-0.8-0.4-1-1.1-1-2c0-8.6,0-17.1,0-25.7c0-0.9,0.1-1.7,0.1-2.6c0-0.1,0-0.3-0.1-0.4
		c-0.1-0.7-0.4-1.3-0.4-2c0-7,0-13.9,0-20.9c0-0.3,0-0.6-0.1-0.8c-0.1-0.5-0.5-0.8-1.1-0.9c0,0.3,0,0.6,0,0.9c0,16.6,0,33.2,0,49.8
		c0,0.3,0,0.7,0,1c-0.1,1.6-1.1,2.9-2.7,3.3C118.4,112.2,118.2,112.3,118.1,112.4z"/>
	<path class="st1" d="M113.2,40c-3.5,0-6.4,2.9-6.4,6.4c0,3.5,2.9,6.4,6.4,6.4c3.5,0,6.4-2.9,6.4-6.4C119.6,42.9,116.8,40,113.2,40z
		 M84.7,55.1c3.4,0,6.2-2.7,6.2-6.1c0-3.4-2.8-6.2-6.2-6.2c-3.4,0-6.1,2.7-6.2,6.1C78.4,52.3,81.2,55.1,84.7,55.1z"/>
	<path d="M113.2,40c3.5,0,6.4,2.9,6.4,6.4c0,3.5-2.9,6.4-6.4,6.4c-3.5,0-6.4-2.9-6.4-6.4C106.8,42.9,109.7,40,113.2,40z"/>
	<path d="M84.7,55.1c-3.4,0-6.2-2.8-6.2-6.2c0-3.4,2.8-6.1,6.2-6.1c3.4,0,6.2,2.8,6.2,6.2C90.8,52.3,88.1,55.1,84.7,55.1z"/>
</g>
</svg>
